<svg width="10" height="6" viewBox="0 0 10 6" fill="none" xmlns="http://www.w3.org/2000/svg">
<g opacity="0.3">
<path d="M5.56276 5.44301C5.25102 5.75155 4.74898 5.75155 4.43724 5.44301L0.320599 1.36859C-0.187378 0.865827 0.168647 1.98125e-08 0.883361 -3.89944e-08L9.11664 -7.16431e-07C9.83135 -7.75238e-07 10.1874 0.865826 9.6794 1.36859L5.56276 5.44301Z" fill="#2E3ED0"/>
<path d="M5.56276 5.44301C5.25102 5.75155 4.74898 5.75155 4.43724 5.44301L0.320599 1.36859C-0.187378 0.865827 0.168647 1.98125e-08 0.883361 -3.89944e-08L9.11664 -7.16431e-07C9.83135 -7.75238e-07 10.1874 0.865826 9.6794 1.36859L5.56276 5.44301Z" fill="#5E6470"/>
</g>
</svg>
